<svg width="960" height="600" viewBox="0 0 960 600" fill="none" xmlns="http://www.w3.org/2000/svg">
  <defs>
    <linearGradient id="bg3" x1="120" y1="80" x2="860" y2="520" gradientUnits="userSpaceOnUse">
      <stop stop-color="#F8FAFC"/>
      <stop offset="1" stop-color="#E2E8F0"/>
    </linearGradient>
    <linearGradient id="blue" x1="0" y1="0" x2="1" y2="1">
      <stop stop-color="#3B82F6"/>
      <stop offset="1" stop-color="#1D4ED8"/>
    </linearGradient>
    <linearGradient id="green" x1="0" y1="0" x2="1" y2="1">
      <stop stop-color="#22C55E"/>
      <stop offset="1" stop-color="#16A34A"/>
    </linearGradient>
  </defs>
  <rect x="18" y="18" width="924" height="564" rx="32" fill="url(#bg3)"/>
  <rect x="118" y="82" width="724" height="436" rx="28" fill="#FFFFFF" stroke="#CBD5E1"/>

  <rect x="452" y="172" width="56" height="236" rx="20" fill="#1E293B"/>
  <rect x="408" y="396" width="144" height="24" rx="12" fill="#0F172A"/>

  <rect x="262" y="210" width="166" height="12" rx="6" fill="#94A3B8"/>
  <rect x="532" y="210" width="166" height="12" rx="6" fill="#94A3B8"/>

  <path d="M346 222V258" stroke="#94A3B8" stroke-width="8" stroke-linecap="round"/>
  <path d="M616 222V258" stroke="#94A3B8" stroke-width="8" stroke-linecap="round"/>

  <path d="M260 306C266 275 296 252 332 252C368 252 398 275 404 306C377 320 352 326 332 326C312 326 287 320 260 306Z" fill="url(#green)"/>
  <path d="M528 306C534 275 564 252 600 252C636 252 666 275 672 306C645 320 620 326 600 326C580 326 555 320 528 306Z" fill="url(#blue)"/>

  <rect x="206" y="354" width="254" height="130" rx="16" fill="#F8FAFC" stroke="#E2E8F0"/>
  <rect x="500" y="354" width="254" height="130" rx="16" fill="#F8FAFC" stroke="#E2E8F0"/>

  <rect x="228" y="380" width="110" height="12" rx="6" fill="#86EFAC"/>
  <rect x="228" y="404" width="202" height="12" rx="6" fill="#DCFCE7"/>
  <rect x="228" y="428" width="176" height="12" rx="6" fill="#DCFCE7"/>

  <rect x="522" y="380" width="110" height="12" rx="6" fill="#93C5FD"/>
  <rect x="522" y="404" width="202" height="12" rx="6" fill="#DBEAFE"/>
  <rect x="522" y="428" width="176" height="12" rx="6" fill="#DBEAFE"/>
</svg>
